<svg id="branco" xmlns="http://www.w3.org/2000/svg" viewBox="0 0 1605.01 391.03"><defs><style>.cls-1{font-size:194px;font-family:LucidaHandwriting-Italic, Lucida Handwriting;font-style:italic;}.cls-1,.cls-2,.cls-3{fill:#fff;}.cls-3{font-size:100px;font-family:Calibri-Light, Calibri;}.cls-4{letter-spacing:-0.01em;}</style></defs><title>convergenciaLogoBranco</title><text class="cls-1" transform="translate(179.96 267.17)">onvergência</text><path class="cls-2" d="M301,304.25a153.26,153.26,0,0,1-78.62,29.62,159.43,159.43,0,0,1-42.55-2.37A155.91,155.91,0,0,1,77.08,260l-2.7-4.65c-.44-.78-.92-1.54-1.34-2.33l-1.23-2.39c-.8-1.61-1.67-3.18-2.42-4.81L67.17,241A152.36,152.36,0,0,1,60,220.7l-.73-2.59c-.24-.86-.42-1.74-.63-2.61l-1.21-5.25-1-5.29c-.15-.88-.33-1.76-.47-2.65l-.34-2.67c-.22-1.78-.47-3.56-.67-5.34l-.41-5.36c-.06-.9-.16-1.79-.19-2.69l-.07-2.69c0-1.79-.12-3.58-.12-5.37a155.76,155.76,0,0,1,86-139c3.16-1.68,6.47-3,9.73-4.51,1.65-.68,3.33-1.3,5-1.95l2.5-1,2.55-.84a151.11,151.11,0,0,1,20.69-5.46c3.53-.59,7-1.25,10.59-1.59l2.65-.31,1.33-.15,1.33-.09,5.34-.36a161.65,161.65,0,0,1,21.34.39,153,153,0,0,1,78.46,30.05,160.65,160.65,0,0,0-37.51-19.23A154.22,154.22,0,0,0,223,25.83l-5.25-.26c-1.75-.05-3.5,0-5.25-.07s-3.5.09-5.25.12l-2.62.1c-.88,0-1.75.06-2.62.15l-5.23.45-1.31.11-1.3.18-2.6.35c-3.47.4-6.9,1.12-10.33,1.76a156,156,0,0,0-20.15,5.65l-2.47.86-2.43,1c-1.62.66-3.24,1.29-4.85,2C148.21,39.65,145,41,142,42.7A152.75,152.75,0,0,0,59.18,178.2c0,1.74.07,3.47.1,5.21l.06,2.6c0,.87.12,1.74.18,2.6l.38,5.2c.19,1.73.43,3.45.64,5.17l.32,2.59c.13.86.3,1.71.45,2.57l.91,5.13,1.16,5.08c.2.84.37,1.7.6,2.54l.71,2.5a148.74,148.74,0,0,0,6.9,19.66l2.14,4.75c.72,1.58,1.57,3.1,2.34,4.66l1.19,2.32c.4.77.85,1.52,1.27,2.28l2.59,4.52a164.47,164.47,0,0,0,12,17.07c1.06,1.38,2.24,2.66,3.36,4l1.7,2c.57.66,1.19,1.27,1.78,1.91l3.59,3.79,3.76,3.62a150.44,150.44,0,0,0,16.14,13.24c1.41,1,2.82,2.05,4.3,3L132.1,309c3,1.73,6,3.61,9.1,5.15a153.14,153.14,0,0,0,39.25,14.25,158.11,158.11,0,0,0,41.76,3,153.15,153.15,0,0,0,41.18-8.15,160.67,160.67,0,0,0,37.61-19Z" transform="translate(-54.18 -22.83)"/><path class="cls-2" d="M301,304.25a70.44,70.44,0,0,1-17.18,9.07,123.35,123.35,0,0,1-18.79,5.2,254.89,254.89,0,0,1-38.76,4.14c-3.25.13-6.5.23-9.74.28s-6.51.11-9.79,0a122.07,122.07,0,0,1-19.53-2.23,132.25,132.25,0,0,1-36.94-13.29,153.84,153.84,0,0,1-57-53.25,148.23,148.23,0,0,1-16.59-35.74,135.1,135.1,0,0,1-6.17-39,121,121,0,0,1,6.4-39,147,147,0,0,1,17.56-35.28,170.72,170.72,0,0,1,57.62-52.7,152.78,152.78,0,0,1,36.39-14.69,135.06,135.06,0,0,1,19.35-3.48c3.26-.31,6.53-.54,9.81-.61s6.53,0,9.78.06c13,.36,26.05,1.32,38.79,4.14a106.07,106.07,0,0,1,18.61,5.85,80.09,80.09,0,0,1,16.85,9.7,81,81,0,0,0-17.15-9,106.91,106.91,0,0,0-18.59-5.22c-12.68-2.41-25.63-2.92-38.54-2.93-3.23,0-6.47,0-9.66.14s-6.39.43-9.57.8A131.2,131.2,0,0,0,189.34,41,150.07,150.07,0,0,0,154,55.91a168.5,168.5,0,0,0-55.62,51.91A143.11,143.11,0,0,0,81.55,142a116.58,116.58,0,0,0-6,37.41A130,130,0,0,0,81.34,217a147.62,147.62,0,0,0,15.9,34.67A152.21,152.21,0,0,0,152.1,304a131.78,131.78,0,0,0,35.75,13.54,119.18,119.18,0,0,0,19,2.57c3.19.19,6.4.2,9.65.21s6.46,0,9.69,0a253,253,0,0,0,38.6-3.05,125,125,0,0,0,18.78-4.63A70,70,0,0,0,301,304.25Z" transform="translate(-54.18 -22.83)"/><path class="cls-2" d="M301,304.25a95.2,95.2,0,0,1-17.42,10.07,137.77,137.77,0,0,1-19,6.75,207.82,207.82,0,0,1-39.81,6.64c-3.36.25-6.73.43-10.1.52s-6.74.14-10.13,0a137.18,137.18,0,0,1-20.22-2,140.05,140.05,0,0,1-38.53-12.84,153,153,0,0,1-76.7-91.32,149.87,149.87,0,0,1-6.52-40.27,142.93,142.93,0,0,1,21.06-78,157,157,0,0,1,58.78-55.31,163.77,163.77,0,0,1,77.93-20,167.24,167.24,0,0,1,40.05,5.11,127.22,127.22,0,0,1,19.11,6.49,89.34,89.34,0,0,1,17.44,10,88.63,88.63,0,0,0-17.73-9.35,128.19,128.19,0,0,0-19.13-5.91,165.53,165.53,0,0,0-39.73-4A157.19,157.19,0,0,0,181,36.8,164.89,164.89,0,0,0,144.28,52a161.29,161.29,0,0,0-31.85,23.56,148.67,148.67,0,0,0-24.76,30.8A138.56,138.56,0,0,0,67.53,181.7a144.69,144.69,0,0,0,6.2,39A152.05,152.05,0,0,0,90.09,256.6,149.73,149.73,0,0,0,147.51,310a140.44,140.44,0,0,0,37.37,13.12,135,135,0,0,0,19.74,2.39c6.62.32,13.33.14,20-.13a205.49,205.49,0,0,0,39.63-5.54,138.35,138.35,0,0,0,19.05-6.18A94.52,94.52,0,0,0,301,304.25Z" transform="translate(-54.18 -22.83)"/><text class="cls-3" transform="translate(1072.82 364.17)"><tspan class="cls-4">c</tspan><tspan x="41.55" y="0">omuni</tspan><tspan class="cls-4" x="298.78" y="0">c</tspan><tspan x="340.33" y="0">a</tspan><tspan class="cls-4" x="387.4" y="0">ç</tspan><tspan x="428.96" y="0">ão</tspan></text></svg>